{"title":"Saw VII-AC3-XviD-BRRip 2010 TBS","uid":6067456,"size":1568714125,"categoryP":"video","categoryS":"movies","magnet":"?xt=urn:btih:4e294b62f394573318b3270be1916acc72b6be46&amp;dn=Saw+VII-AC3-XviD-BRRip+2010+TBS&amp;tr=udp%3A%2F%2Ftracker.openbittorrent.com%3A80&amp;tr=udp%3A%2F%2Fopen.demonii.com%3A1337&amp;tr=udp%3A%2F%2Ftracker.coppersurfer.tk%3A6969&amp;tr=udp%3A%2F%2Fexodus.desync.com%3A6969","seeders":0,"leechers":0,"uploader":"FatFreddy30","files":-1,"time":1293409788,"description":"Aka Saw 3D: The Final Chapter \n\nAs a deadly battle rages over Jigsaw's brutal legacy, a group of Jigsaw survivors gathers to seek the support of self-help guru and fellow survivor Bobby Dagen, a man whose own dark secrets unleash a new wave of terror..\n &lt;a href=&quot;\nhttp://www.imdb.com/title/tt1477076/&quot; rel=&quot;nofollow&quot; target=&quot;_NEW&quot;&gt;\nhttp://www.imdb.com/title/tt1477076/&lt;/a&gt;\n\nSubs: Dutch (srt).\n\nHet gevecht tussen detective Hoffman en Jill Tuck duurt voort. Ondertussen ontmoeten een aantal overlevenden van de spelletjes van Jigsaw, waaronder Dr. Lawrence Gordon, elkaar bij een sessie van Bobby Dagen, die beweert zelf ook een overlevende van Jigsaw te zijn. Maar dan wordt Bobby ontvoerd en zal hij een serie tests moeten afleggen om zijn vrienden en uiteindelijk zijn vrouw te redden..\n &lt;a href=&quot;\nhttp://www.moviemeter.nl/film/67959&quot; rel=&quot;nofollow&quot; target=&quot;_NEW&quot;&gt;\nhttp://www.moviemeter.nl/film/67959&lt;/a&gt;\n\nOndertitels: Nederlands (srt).\n\nGeneral\nComplete name                    : Saw VII-AC3-XviD-BRRip 2010 TBS\\Saw VII-AC3-XviD-BRRip 2010 TBS.avi\nFormat                           : AVI\nFormat/Info                      : Audio Video Interleave\nFile size                        : 1.46 GiB\nDuration                         : 1h 30mn\nOverall bit rate                 : 2 323 Kbps\nWriting application              : VirtualDubMod 1.5.4.1 (build 2178/release)\nWriting library                  : VirtualDubMod build 2178/release\nSource                           : Saw.VII.2010.720p.Bluray.x264.DTS-HDChina\n\nVideo\nID                               : 0\nFormat                           : MPEG-4 Visual\nFormat profile                   : Simple@L3\nFormat settings, BVOP            : No\nFormat settings, QPel            : No\nFormat settings, GMC             : No warppoints\nFormat settings, Matrix          : Default (H.263)\nCodec ID                         : XVID\nCodec ID/Hint                    : XviD\nDuration                         : 1h 30mn\nBit rate                         : 1 866 Kbps\nWidth                            : 720 pixels\nHeight                           : 400 pixels\nDisplay aspect ratio             : 16:9\nFrame rate                       : 23.976 fps\nResolution                       : 8 bits\nColorimetry                      : 4:2:0\nScan type                        : Progressive\nBits/(Pixel*Frame)               : 0.270\nStream size                      : 1.17 GiB (80%)\nWriting library                  : XviD 1.1.2 (UTC 2006-11-01)\n\nAudio\nID                               : 1\nFormat                           : AC-3\nFormat/Info                      : Audio Coding 3\nCodec ID                         : 2000\nDuration                         : 1h 29mn\nBit rate mode                    : Constant\nBit rate                         : 448 Kbps\nChannel(s)                       : 6 channels\nChannel positions                : Front: L C R, Surround: L R, LFE\nSampling rate                    : 48.0 KHz\nStream size                      : 288 MiB (19%)\nAlignment                        : Split accross interleaves\nInterleave, duration             : 42 ms (1.00 video frame)\nInterleave, preload duration     : 500 ms\n\nThanks to Bradje for the source, and Simply ReleaseS Toppers for the Dutch subs.. Awesome job peeps!\n\nBlackbeard  TBS.","torrent":{"xt":"urn:btih:4e294b62f394573318b3270be1916acc72b6be46","amp;dn":"Saw+VII-AC3-XviD-BRRip+2010+TBS","amp;tr":["udp%3A%2F%2Ftracker.openbittorrent.com%3A80","udp%3A%2F%2Fopen.demonii.com%3A1337","udp%3A%2F%2Ftracker.coppersurfer.tk%3A6969","udp%3A%2F%2Fexodus.desync.com%3A6969"],"infoHash":"4e294b62f394573318b3270be1916acc72b6be46","infoHashBuffer":{"type":"Buffer","data":[78,41,75,98,243,148,87,51,24,179,39,11,225,145,106,204,114,182,190,70]},"announce":[],"urlList":[]}}